<svg xmlns="http://www.w3.org/2000/svg" xmlns:xlink="http://www.w3.org/1999/xlink" width="378" zoomAndPan="magnify" viewBox="0 0 283.5 70.499998" height="94" preserveAspectRatio="xMidYMid meet" version="1.0"><defs><g/><clipPath id="32dd0a0e68"><path d="M 0.773438 0.78125 L 118.5 0.78125 L 118.5 31.285156 L 0.773438 31.285156 Z M 0.773438 0.78125 " clip-rule="nonzero"/></clipPath><clipPath id="63c523eab1"><path d="M 110 10 L 118.5 10 L 118.5 17 L 110 17 Z M 110 10 " clip-rule="nonzero"/></clipPath><clipPath id="be6f816130"><rect x="0" width="9" y="0" height="7"/></clipPath><clipPath id="1bcbca8772"><rect x="0" width="119" y="0" height="32"/></clipPath><clipPath id="7eb4b52dac"><rect x="0" width="119" y="0" height="32"/></clipPath></defs><g transform="matrix(1, 0, 0, 1, 81, 19)"><g clip-path="url(#7eb4b52dac)"><g clip-path="url(#32dd0a0e68)"><g transform="matrix(1, 0, 0, 1, -0.000000000000028422, -0.000000000000003553)"><g clip-path="url(#1bcbca8772)"><path fill="#000000" d="M 26.953125 3.976562 L 26.984375 27.855469 L 21.804688 27.878906 L 21.804688 14.09375 L 14.984375 18.710938 C 14.84375 18.808594 14.65625 18.804688 14.515625 18.707031 L 7.933594 14.183594 L 7.933594 27.878906 L 2.726562 27.855469 L 2.699219 3.976562 L 14.757812 12.21875 C 14.796875 12.246094 14.851562 12.246094 14.894531 12.21875 Z M 26.953125 3.976562 " fill-opacity="1" fill-rule="nonzero"/><path fill="#000000" d="M 61.785156 10.792969 L 66.667969 10.792969 L 66.683594 27.855469 L 61.796875 27.855469 C 61.796875 27.855469 61.785156 26.359375 61.785156 26.359375 C 60.785156 27.660156 59.277344 28.308594 57.253906 28.308594 C 54.789062 28.335938 52.671875 27.476562 50.902344 25.730469 C 49.136719 23.988281 48.242188 21.871094 48.214844 19.382812 C 48.195312 16.917969 49.054688 14.800781 50.800781 13.035156 C 52.542969 11.269531 54.660156 10.375 57.148438 10.351562 C 59.195312 10.351562 60.742188 11.011719 61.789062 12.339844 L 61.789062 10.792969 Z M 60.367188 22.589844 C 61.253906 21.703125 61.699219 20.625 61.699219 19.355469 C 61.699219 18.089844 61.246094 16.984375 60.335938 16.125 C 59.425781 15.214844 58.359375 14.789062 57.136719 14.835938 C 55.867188 14.835938 54.789062 15.277344 53.902344 16.160156 C 53.015625 17.042969 52.574219 18.121094 52.574219 19.390625 C 52.574219 20.660156 53.027344 21.714844 53.941406 22.621094 C 54.824219 23.507812 55.902344 23.953125 57.175781 23.953125 C 58.464844 23.90625 59.53125 23.449219 60.367188 22.589844 Z M 60.367188 22.589844 " fill-opacity="1" fill-rule="nonzero"/><path fill="#000000" d="M 68.9375 3.621094 L 74.15625 3.621094 L 74.15625 27.855469 L 68.9375 27.855469 Z M 68.9375 3.621094 " fill-opacity="1" fill-rule="nonzero"/><path fill="#000000" d="M 46.882812 20.054688 C 46.90625 20.539062 46.90625 20.828125 46.882812 20.921875 L 33.769531 20.890625 C 34.847656 23.898438 39.136719 24.644531 41.195312 22.238281 L 45.730469 23.667969 C 41.265625 31.699219 28.9375 28.355469 28.917969 19.328125 C 29.277344 6.984375 47.425781 7.660156 46.882812 20.054688 Z M 37.882812 14.792969 C 36.105469 14.722656 34.390625 16.121094 33.792969 17.710938 L 41.992188 17.710938 C 41.414062 16.128906 39.636719 14.71875 37.882812 14.792969 Z M 37.882812 14.792969 " fill-opacity="1" fill-rule="nonzero"/><path fill="#000000" d="M 93.734375 20.007812 C 93.757812 20.496094 93.757812 20.789062 93.734375 20.882812 L 80.621094 20.847656 C 81.699219 23.871094 85.988281 24.621094 88.046875 22.207031 L 92.582031 23.636719 C 88.117188 31.707031 75.789062 28.347656 75.769531 19.28125 C 76.128906 6.878906 94.277344 7.5625 93.734375 20.007812 Z M 84.734375 14.8125 C 82.957031 14.746094 81.242188 16.148438 80.644531 17.746094 L 88.84375 17.746094 C 88.265625 16.152344 86.488281 14.738281 84.734375 14.8125 Z M 84.734375 14.8125 " fill-opacity="1" fill-rule="nonzero"/><path fill="#000000" d="M 103.855469 10.6875 C 106.285156 10.667969 108.347656 11.507812 110.050781 13.207031 C 111.773438 14.929688 112.632812 16.992188 112.632812 19.394531 C 112.65625 21.820312 111.816406 23.882812 110.113281 25.585938 C 108.414062 27.3125 106.363281 28.183594 103.957031 28.207031 C 101.53125 28.226562 99.457031 27.386719 97.734375 25.6875 C 96.007812 23.984375 95.144531 21.921875 95.144531 19.5 C 95.125 17.074219 95.964844 15.007812 97.664062 13.308594 C 99.367188 11.585938 101.429688 10.710938 103.859375 10.6875 Z M 107.007812 22.523438 C 107.863281 21.648438 108.292969 20.589844 108.292969 19.339844 C 108.292969 18.089844 107.851562 17.050781 106.976562 16.15625 C 106.097656 15.304688 105.054688 14.878906 103.851562 14.878906 C 102.648438 14.878906 101.621094 15.316406 100.761719 16.191406 C 99.90625 17.109375 99.480469 18.171875 99.480469 19.371094 C 99.480469 20.574219 99.917969 21.660156 100.800781 22.554688 C 101.652344 23.429688 102.695312 23.863281 103.921875 23.863281 C 105.171875 23.816406 106.199219 23.371094 107.007812 22.523438 Z M 107.007812 22.523438 " fill-opacity="1" fill-rule="nonzero"/><g clip-path="url(#63c523eab1)"><g transform="matrix(1, 0, 0, 1, 110, 10)"><g clip-path="url(#be6f816130)"><g fill="#000000" fill-opacity="1"><g transform="translate(1.370373, 4.534647)"><g><path d="M 1 -2.5625 L 0.09375 -2.5625 L 0.09375 -3.203125 L 2.609375 -3.203125 L 2.609375 -2.5625 L 1.6875 -2.5625 L 1.6875 0 L 1 0 Z M 1 -2.5625 "/></g></g></g><g fill="#000000" fill-opacity="1"><g transform="translate(3.95322, 4.534647)"><g><path d="M 0.40625 -3.203125 L 1.03125 -3.203125 L 2.125 -1.828125 L 3.234375 -3.203125 L 3.84375 -3.203125 L 3.84375 0 L 3.15625 0 L 3.15625 -2.109375 L 2.125 -0.828125 L 1.09375 -2.109375 L 1.09375 0 L 0.40625 0 Z M 0.40625 -3.203125 "/></g></g></g></g></g></g></g></g></g></g></g></svg>